HIERARCHY
ROOT Hips
{
	OFFSET -3.958830 18.904000 13.208200
	CHANNELS 6 Xposition Yposition Zposition Zrotation Yrotation Xrotation 
	JOINT LHipJoint
	{
		OFFSET 0.000000 0.000000 0.000000
		CHANNELS 3 Zrotation Yrotation Xrotation
		JOINT LeftUpLeg
		{
			OFFSET 1.800000 -1.400000 0.085000
			CHANNELS 3 Zrotation Yrotation Xrotation
			JOINT LeftLeg
			{
				OFFSET 2.215000 -6.000000 0.000000
				CHANNELS 3 Zrotation Yrotation Xrotation
				JOINT LeftFoot
				{
					OFFSET 2.500000 -6.900000 0.000000
					CHANNELS 3 Zrotation Yrotation Xrotation
					JOINT LeftToeBase
					{
						OFFSET 0.200000 -0.500000 1.950000
						CHANNELS 3 Zrotation Yrotation Xrotation
						End Site
						{
							OFFSET 0.000000 0.000000 0.000000
						}
					}
				}
			}
		}
	}
	JOINT RHipJoint
	{
		OFFSET 0.000000 0.000000 0.000000
		CHANNELS 3 Zrotation Yrotation Xrotation
		JOINT RightUpLeg
		{
			OFFSET -1.800000 -1.400000 0.085000
			CHANNELS 3 Zrotation Yrotation Xrotation
			JOINT RightLeg
			{
				OFFSET -2.215000 -6.000000 0.000000
				CHANNELS 3 Zrotation Yrotation Xrotation
				JOINT RightFoot
				{
					OFFSET -2.500000 -6.900000 0.000000
					CHANNELS 3 Zrotation Yrotation Xrotation
					JOINT RightToeBase
					{
						OFFSET -0.200000 -0.500000 1.950000
						CHANNELS 3 Zrotation Yrotation Xrotation
						End Site
						{
							OFFSET 0.000000 0.000000 0.000000
						}
					}
				}
			}
		}
	}
	JOINT LowerBack
	{
		OFFSET 0.000000 0.000000 0.000000
		CHANNELS 3 Zrotation Yrotation Xrotation
		JOINT Spine
		{
			OFFSET -0.087000 1.940000 -0.288900
			CHANNELS 3 Zrotation Yrotation Xrotation
			JOINT Spine1
			{
				OFFSET 0.000000 1.950000 0.060000
				CHANNELS 3 Zrotation Yrotation Xrotation
				JOINT Neck
				{
					OFFSET 0.000000 0.000000 0.000000
					CHANNELS 3 Zrotation Yrotation Xrotation
					JOINT Neck1
					{
						OFFSET 0.000000 1.600000 0.340000
						CHANNELS 3 Zrotation Yrotation Xrotation
						JOINT Head
						{
							OFFSET 0.000000 1.667000 -0.240000
							CHANNELS 3 Zrotation Yrotation Xrotation
							End Site
							{
								OFFSET 0.000000 0.000000 0.000000
							}
						}
					}
				}
				JOINT LeftShoulder
				{
					OFFSET 0.000000 0.000000 0.000000
					CHANNELS 3 Zrotation Yrotation Xrotation
					JOINT LeftArm
					{
						OFFSET 2.700000 1.550000 -0.730000
						CHANNELS 3 Zrotation Yrotation Xrotation
						JOINT LeftForeArm
						{
							OFFSET 5.450000 0.000000 0.000000
							CHANNELS 3 Zrotation Yrotation Xrotation
							JOINT LeftHand
							{
								OFFSET 3.450000 0.000000 0.000000
								CHANNELS 3 Zrotation Yrotation Xrotation
								JOINT LeftHandIndex1
								{
									OFFSET 0.750000 0.000000 0.000000
									CHANNELS 3 Zrotation Yrotation Xrotation
									End Site
									{
										OFFSET 0.000000 0.000000 0.000000
									}
								}
							}
						}
					}
				}
				JOINT RightShoulder
				{
					OFFSET 0.000000 0.000000 0.000000
					CHANNELS 3 Zrotation Yrotation Xrotation
					JOINT RightArm
					{
						OFFSET -2.700000 1.550000 -0.730000
						CHANNELS 3 Zrotation Yrotation Xrotation
						JOINT RightForeArm
						{
							OFFSET -5.450000 0.000000 0.000000
							CHANNELS 3 Zrotation Yrotation Xrotation
							JOINT RightHand
							{
								OFFSET -3.450000 0.000000 0.000000
								CHANNELS 3 Zrotation Yrotation Xrotation
								JOINT RightHandIndex1
								{
									OFFSET -0.750000 0.000000 0.000000
									CHANNELS 3 Zrotation Yrotation Xrotation
									End Site
									{
										OFFSET 0.000000 0.000000 0.000000
									}
								}
							}
						}
					}
				}
			}
		}
	}
}
MOTION
Frames: 12
Frame Time: 0.016667
-1.979110 17.675510 -1.936850 -7.738485 35.914686 -11.384328 -15.525547 14.415129 2.507569 24.800337 -3.025535 -9.016877 -1.903770 10.279241 35.137077 -0.222407 8.303759 1.675168 -0.255560 -0.425830 -0.397490 17.913778 -9.593499 3.112590 -7.520125 4.591437 -32.817721 6.423467 -9.299413 38.586240 -0.284832 -5.588691 2.259207 -0.036200 0.822350 0.131910 -3.113276 -4.960082 -7.786439 -0.363661 -7.470150 27.215364 -5.734354 -5.618541 17.425169 -1.668305 -9.606723 -13.640731 -23.669095 4.140271 30.671005 3.730860 -6.174390 -10.301640 10.328968 -19.181316 3.457257 -5.232107 -28.502995 -7.183568 79.519334 -41.990219 -38.646391 -4.320210 2.312910 0.438720 0.288620 -0.273940 0.084790 -6.751737 23.848952 11.266139 3.119831 6.993123 -11.240925 -120.300649 38.325280 -74.534344 1.793557 -1.410314 -0.529370 0.631960 0.550660 0.046930 
-1.994090 17.664610 -1.948910 -7.693534 35.898175 -11.743574 -15.541621 14.506829 2.448021 24.521071 -2.754687 -8.870944 -0.974648 10.010112 35.606785 -0.216890 8.284525 1.698540 -0.239210 -0.393950 -0.395660 17.891162 -9.605582 3.119231 -7.358697 4.863626 -32.397511 6.103500 -9.042816 38.637711 -0.283294 -5.572379 2.275774 -0.013420 0.838290 0.139990 -3.050824 -5.032983 -7.746207 -1.019050 -7.095990 27.881923 -5.418014 -5.264937 17.956163 -1.880513 -9.438436 -13.350993 -22.873995 3.885232 30.035349 3.038700 -5.826200 -10.212650 10.542585 -19.555990 3.251288 -4.112795 -28.834336 -7.666906 84.446055 -41.418289 -41.508907 -4.376566 2.283880 0.414170 0.312310 -0.278190 0.102450 -6.658345 24.231113 11.211105 1.894920 7.467711 -11.066212 -119.938133 39.900342 -76.248870 1.785077 -1.382819 -0.523550 0.639760 0.536940 0.056060 
-1.995030 17.658440 -1.961380 -7.543516 35.951848 -12.244504 -15.532178 14.593794 2.310516 23.905203 -2.151855 -8.279861 0.470360 9.498152 35.703862 -0.248212 8.156288 1.750714 -0.231450 -0.363930 -0.410370 17.888137 -9.693398 3.137970 -7.565822 5.205162 -31.722858 6.101013 -8.891855 38.595157 -0.283150 -5.577758 2.286536 0.012920 0.855350 0.132980 -3.103989 -4.917516 -7.680916 -1.133159 -6.969670 27.497577 -6.328956 -4.875744 19.147566 -1.950191 -8.912943 -13.196236 -22.224253 4.744777 31.677468 3.202460 -4.989510 -9.717120 11.338788 -21.245056 3.281616 -2.651298 -29.658532 -7.951987 90.728679 -40.358394 -44.916301 -4.441355 2.214093 0.410730 0.330740 -0.282300 0.111540 -7.471569 25.536136 10.998913 0.997181 10.983869 -10.757996 -114.647092 42.395201 -72.491066 1.750613 -1.209989 -0.532800 0.660590 0.540730 0.057340 
-1.986060 17.649960 -1.977610 -7.500710 35.751318 -12.860867 -15.522582 14.698270 2.145756 23.351226 -1.317827 -7.283593 2.093495 8.886725 35.266862 -0.270499 7.936834 1.823590 -0.170710 -0.282760 -0.380630 17.886629 -9.757344 3.184091 -7.916865 5.757561 -30.966841 6.541612 -8.840334 38.551211 -0.322211 -5.592182 2.272264 0.053010 0.821550 0.138450 -3.157052 -4.826447 -7.618372 -1.014816 -6.916195 26.926922 -7.271661 -4.550844 20.271058 -1.965094 -8.579681 -13.000930 -22.319805 5.743874 33.935796 3.790720 -4.362910 -10.341660 12.624998 -23.463015 3.414172 -1.451452 -31.154821 -7.878996 96.526332 -39.607046 -48.246525 -4.460115 2.156469 0.426750 0.306460 -0.245050 0.126790 -8.861608 27.528882 10.358930 -0.465768 15.383337 -10.852684 -105.194099 45.441144 -64.096508 1.686209 -0.954495 -0.508230 0.658990 0.511920 0.057470 
-1.978720 17.648870 -1.991010 -6.980517 35.653436 -13.389993 -15.543704 14.820649 2.020715 22.689169 -0.476765 -6.309657 3.387570 8.481830 35.073947 -0.292208 7.802228 1.853005 -0.088070 -0.168080 -0.315980 17.858347 -9.798322 3.187195 -8.603679 6.205787 -29.962270 7.017307 -8.730695 38.356165 -0.350973 -5.599534 2.246705 0.120680 0.773710 0.150150 -3.090908 -4.846566 -7.535432 -2.145214 -6.612978 26.220807 -8.123221 -4.169126 21.630495 -2.150405 -7.662800 -12.249967 -20.831686 6.238003 36.196075 3.606200 -3.417380 -11.359970 15.302692 -25.629016 3.193376 -0.155662 -32.951394 -7.691243 99.726408 -39.582231 -50.161193 -4.502210 2.103276 0.423680 0.294820 -0.205110 0.125560 -11.395132 29.180375 8.902117 -0.895098 20.627658 -11.136683 -91.065104 49.242416 -52.311962 1.528079 -0.673465 -0.474640 0.652450 0.475690 0.049040 
-1.975730 17.649930 -2.008320 -6.914593 35.026473 -14.209389 -15.599872 14.939597 1.945710 22.799922 0.370761 -5.506587 4.158655 8.458288 35.081779 -0.301765 7.823561 1.822032 0.002880 -0.034360 -0.258180 17.817308 -9.714081 3.189883 -8.724044 6.943603 -28.980288 7.380246 -8.545077 38.461832 -0.375787 -5.653508 2.202354 0.215020 0.746030 0.170820 -2.872205 -5.071563 -7.463631 -3.907641 -6.216580 25.544909 -7.798435 -3.908499 23.027950 -2.569846 -6.857786 -11.127360 -18.947405 6.438252 37.217647 2.817330 -2.510540 -11.933540 18.638083 -27.563547 2.971394 -0.324195 -33.690940 -7.491657 101.549820 -40.352689 -51.972232 -4.584529 2.081812 0.383100 0.312030 -0.187120 0.129810 -14.085131 30.908121 6.567636 -1.974164 26.265581 -11.644321 -72.836527 49.911939 -37.626563 1.443277 -0.765183 -0.438640 0.643260 0.441150 0.049510 
-1.970820 17.642820 -2.020620 -7.148714 34.237750 -15.442902 -15.697193 15.149327 1.944357 23.533585 1.098095 -4.567706 4.483997 8.669427 35.084578 -0.254615 7.955722 1.782996 0.098180 0.096000 -0.206710 17.739283 -9.513920 3.147804 -8.501492 7.593166 -27.688091 7.676628 -8.424393 38.736354 -0.421766 -5.744783 2.160866 0.291990 0.748290 0.222260 -2.458177 -5.690808 -7.401195 -6.095845 -5.790421 25.174587 -6.294187 -3.797431 24.599662 -3.155413 -6.356819 -10.328796 -17.877275 6.293585 37.248998 1.580660 -2.083220 -11.984640 22.481778 -28.917922 2.386262 -1.922027 -33.869358 -7.781071 101.768233 -40.424273 -51.727758 -4.729936 2.087446 0.325940 0.348750 -0.166900 0.164870 -17.065874 32.495171 4.942649 -3.947915 29.599051 -11.689744 -59.393098 46.794205 -27.682184 1.500294 -1.059862 -0.382150 0.630740 0.393580 0.073130 
-1.958780 17.633150 -2.024000 -7.456647 33.904778 -15.888199 -15.717838 15.131315 1.940018 24.153232 1.408076 -4.469932 4.252650 9.040497 35.422864 -0.289016 8.100842 1.705909 0.127870 0.136810 -0.161690 17.748365 -9.414257 3.152203 -8.269899 8.035686 -27.567685 7.618667 -8.415119 39.353341 -0.446937 -5.826386 2.128636 0.334760 0.728150 0.214000 -2.387143 -5.796055 -7.385790 -6.456435 -5.931944 24.742914 -6.340135 -4.139742 24.741032 -3.361775 -6.373371 -9.674352 -18.018246 7.444843 37.885803 0.679980 -0.784800 -12.868580 22.483837 -28.782038 2.519024 -0.952034 -35.292795 -6.667427 103.001463 -39.477844 -51.388026 -4.730977 2.031203 0.343540 0.355290 -0.156190 0.145140 -16.683652 32.260962 3.575577 -4.435676 33.069334 -10.459517 -54.859116 45.265946 -24.381848 1.507620 -1.064199 -0.399360 0.652800 0.393650 0.043270 
-1.951600 17.620950 -2.022680 -7.987306 33.463195 -16.475760 -15.722559 15.089995 2.002276 25.129162 1.255299 -4.083066 3.410668 9.535662 35.382141 -0.290005 8.287644 1.644325 0.070280 0.071800 -0.187090 17.761976 -9.329638 3.135798 -7.530039 8.153853 -27.431191 7.231167 -8.450079 40.124429 -0.450093 -5.918011 2.104959 0.312950 0.758410 0.198870 -2.348177 -5.904228 -7.418980 -6.635269 -6.018129 25.033849 -5.815464 -4.433010 24.804870 -3.786110 -6.538646 -9.753730 -18.391408 8.428037 37.772028 0.492260 0.176150 -12.430230 21.918247 -28.258835 2.658125 0.286515 -35.082213 -6.385306 104.653823 -39.517561 -52.460409 -4.760278 1.971844 0.353750 0.375600 -0.180800 0.119560 -15.281295 31.770029 3.871058 -4.526607 33.006481 -10.594621 -62.413623 48.021865 -29.726688 1.453699 -0.882970 -0.442220 0.676220 0.434920 0.028130 
-1.943900 17.612760 -2.007580 -8.045029 33.219866 -16.751467 -15.733755 15.115085 2.125321 25.682049 0.545915 -3.524033 2.399515 9.896436 35.367044 -0.265782 8.424611 1.588807 0.047820 0.012500 -0.176810 17.742535 -9.301833 3.055538 -6.789147 7.577065 -27.290842 6.227102 -8.344418 40.617969 -0.460416 -5.893254 2.112838 0.264510 0.728480 0.209050 -2.253339 -6.127907 -7.436003 -7.529575 -6.136331 25.450563 -5.140838 -4.718584 24.951775 -3.978452 -7.074466 -10.666111 -19.826072 9.376436 37.671962 0.600470 0.748060 -12.922850 20.918398 -26.802942 2.992954 0.530058 -33.937492 -6.003001 107.891570 -39.415822 -55.601269 -4.702311 1.972442 0.404550 0.345750 -0.163040 0.098200 -13.837924 30.775340 5.705766 -3.116232 31.092481 -10.149430 -82.289885 48.075854 -44.020850 1.475166 -0.718598 -0.447340 0.648060 0.447690 0.004510 
-1.934190 17.599240 -1.987420 -8.337204 32.962043 -16.680935 -15.685014 15.008666 2.217652 26.151993 -0.421791 -3.225247 1.349500 10.202396 35.393436 -0.230353 8.539621 1.552228 -0.014710 -0.098540 -0.218800 17.784680 -9.332397 3.040154 -5.910795 7.041580 -28.007221 5.144841 -8.345482 41.461162 -0.473315 -5.921493 2.105604 0.182100 0.726280 0.210920 -2.411701 -6.012932 -7.497127 -6.648753 -6.606788 25.958609 -5.563988 -5.167920 24.492524 -3.840490 -7.990521 -12.148568 -22.408480 10.081844 37.065062 1.855310 0.268170 -12.834800 19.107529 -25.009245 3.648234 0.210111 -32.812236 -5.680229 110.989120 -37.922710 -57.780947 -4.616325 2.019388 0.459730 0.306850 -0.161530 0.086690 -12.107107 29.162839 8.230710 -0.416067 27.310966 -8.627418 -103.650477 44.130695 -61.683314 1.647594 -0.905391 -0.463270 0.626060 0.480790 -0.000440 
-1.922790 17.579980 -1.964110 -8.565998 33.168147 -16.446914 -15.640037 14.932741 2.275468 26.305806 -1.325584 -3.338973 0.875837 10.282681 35.714248 -0.183532 8.588281 1.543874 -0.087390 -0.203200 -0.280990 17.819742 -9.375373 3.038513 -5.263748 6.508174 -28.914524 4.072532 -8.338754 42.356776 -0.476399 -5.967949 2.102046 0.100770 0.731150 0.191670 -2.563428 -5.906264 -7.546640 -5.765400 -7.106465 26.550643 -5.857847 -5.683488 23.459806 -3.521079 -8.887607 -13.425392 -25.073537 10.462296 36.141798 3.176480 -0.584080 -12.193000 16.116949 -22.896790 4.336077 0.271146 -31.844986 -4.858957 114.559040 -37.206529 -61.082553 -4.510974 2.069814 0.488690 0.271090 -0.173250 0.082140 -9.447490 27.205952 10.135557 2.363481 22.263948 -7.464680 -118.738416 40.111941 -74.935935 1.754366 -1.181519 -0.476920 0.610260 0.508380 0.007930 
